<?xml version="1.0" encoding="UTF-8" standalone="no"?>
<svg
   xmlns:dc="http://purl.org/dc/elements/1.1/"
   xmlns:cc="http://creativecommons.org/ns#"
   xmlns:rdf="http://www.w3.org/1999/02/22-rdf-syntax-ns#"
   xmlns:svg="http://www.w3.org/2000/svg"
   xmlns="http://www.w3.org/2000/svg"
   xmlns:sodipodi="http://sodipodi.sourceforge.net/DTD/sodipodi-0.dtd"
   xmlns:inkscape="http://www.inkscape.org/namespaces/inkscape"
   id="Layer_1"
   enable-background="new 0 0 512 512"
   height="512"
   viewBox="0 0 512 512"
   width="512"
   version="1.1"
   sodipodi:docname="simple tabulature editor.svg"
   inkscape:version="0.92.5 (2060ec1f9f, 2020-04-08)">
  <metadata
     id="metadata109">
    <rdf:RDF>
      <cc:Work
         rdf:about="">
        <dc:format>image/svg+xml</dc:format>
        <dc:type
           rdf:resource="http://purl.org/dc/dcmitype/StillImage" />
      </cc:Work>
    </rdf:RDF>
  </metadata>
  <defs
     id="defs107" />
  <sodipodi:namedview
     pagecolor="#ffffff"
     bordercolor="#666666"
     borderopacity="1"
     objecttolerance="10"
     gridtolerance="10"
     guidetolerance="10"
     inkscape:pageopacity="0"
     inkscape:pageshadow="2"
     inkscape:window-width="1920"
     inkscape:window-height="1004"
     id="namedview105"
     showgrid="false"
     inkscape:zoom="1.3037281"
     inkscape:cx="67.070719"
     inkscape:cy="123.48497"
     inkscape:window-x="0"
     inkscape:window-y="0"
     inkscape:window-maximized="1"
     inkscape:current-layer="flowRoot916" />
  <g
     id="g102">
    <path
       d="m245.002 21.996c-135.311 0-245.002 109.691-245.002 245.002 0 19.013 2.166 37.52 6.265 55.288l148.389 172.51c27.957 11.098 58.438 17.204 90.348 17.204 135.311 0 245.002-109.691 245.002-245.002s-109.691-245.002-245.002-245.002z"
       fill="#e80054"
       id="path2" />
    <g
       id="g6">
      <path
         d="m394.253 82.858c-2.488 0-4.922-1.237-6.349-3.496l-17.992-28.487c-2.212-3.502-1.166-8.134 2.336-10.346 3.504-2.211 8.135-1.165 10.346 2.336l17.992 28.487c2.212 3.502 1.166 8.134-2.336 10.346-1.243.785-2.629 1.16-3.997 1.16z"
         fill="#bec8f7"
         id="path4" />
    </g>
    <g
       id="g10">
      <path
         d="m426.264 63.174c-2.488 0-4.922-1.237-6.349-3.496l-17.991-28.488c-2.212-3.502-1.166-8.134 2.336-10.346 3.504-2.212 8.135-1.165 10.346 2.336l17.992 28.487c2.212 3.502 1.166 8.134-2.336 10.346-1.243.786-2.629 1.161-3.998 1.161z"
         fill="#bec8f7"
         id="path8" />
    </g>
    <g
       id="g14">
      <path
         d="m458.276 43.488c-2.488 0-4.922-1.237-6.349-3.496l-17.992-28.487c-2.212-3.502-1.166-8.134 2.336-10.346 3.503-2.211 8.135-1.165 10.346 2.336l17.992 28.487c2.212 3.502 1.166 8.134-2.336 10.346-1.243.785-2.628 1.16-3.997 1.16z"
         fill="#bec8f7"
         id="path12" />
    </g>
    <g
       id="g18">
      <path
         d="m372.948 63.505c-2.497 0-4.937-1.245-6.361-3.516-2.201-3.509-1.141-8.138 2.368-10.339l13.335-8.364c3.508-2.201 8.137-1.141 10.339 2.368 2.201 3.509 1.141 8.138-2.368 10.339l-13.335 8.364c-1.238.777-2.617 1.148-3.978 1.148z"
         fill="#e9efff"
         id="path16" />
    </g>
    <g
       id="g22">
      <path
         d="m404.96 43.82c-2.496 0-4.937-1.245-6.361-3.516-2.201-3.509-1.141-8.138 2.368-10.339l13.335-8.365c3.509-2.198 8.138-1.141 10.339 2.368s1.141 8.138-2.368 10.339l-13.335 8.365c-1.239.777-2.617 1.148-3.978 1.148z"
         fill="#e9efff"
         id="path20" />
    </g>
    <g
       id="g26">
      <path
         d="m436.971 24.135c-2.497 0-4.937-1.245-6.361-3.516-2.201-3.509-1.141-8.138 2.368-10.339l13.335-8.364c3.508-2.2 8.137-1.142 10.339 2.368 2.201 3.509 1.141 8.138-2.368 10.339l-13.335 8.364c-1.238.777-2.616 1.148-3.978 1.148z"
         fill="#e9efff"
         id="path24" />
    </g>
    <path
       d="m101.614 299.283c5.672 7.486 14.673 11.694 26.767 12.521-.017.707.017 1.594.155 2.549 6.847-7.564 12.656-16.155 17.18-25.597 3.376-7.046 7.039-13.757 10.887-19.948 2.49-4.007 6.786-6.406 11.493-6.418 3.73-.009 7.219 1.46 9.797 4.037.144.144 1.086.291 2.505.442-7.105-12.24-7.664-27.799-.173-40.927 3.24-5.678 7.134-11.704 11.801-17.852 11.764-15.5-5.819-36.093-23.047-27.046-21.499 11.291-44.714 32.326-63.255 70.906-2.927 6.091-6.411 11.845-10.378 17.206-.845 6.1-1.592 19.755 6.268 30.127z"
       fill="#85a5f7"
       id="path28" />
    <path
       d="m110.481 416.254-31.451-31.451c-6.243-6.243-8.896-15.129-7.096-23.77 1.799-8.638 7.774-15.724 15.985-18.956l1.319-.518c15.79-6.213 29.652-16.097 40.653-28.733-.062-1.413.106-2.435.106-2.435-42.528-1.858-32.636-44.053-32.636-44.053l-.02-.009c-11.781 17.059-28.349 30.411-47.868 38.092l-31.939 12.57c-3.928 1.546-7.683 3.323-11.27 5.295 6.257 27.127 17.03 52.522 31.467 75.372l62.158 66.733c6.29 4.631 12.802 8.978 19.531 13.003 1.032-4.559 2.076-8.57 3.098-11.824 5.491-17.503.879-36.4-12.037-49.316z"
       fill="#567ee2"
       id="path30" />
    <g
       fill="#e9efff"
       id="g36">
      <path
         d="m251.406 356.201c-.197.076-.395.151-.594.225-20.982 7.859-43.592-6.899-45.119-29.252l-.077-1.123-28.684 28.684c.088.114.183.236.269.347l-10.031 15.92-.054.276c-.181.935-4.268 23.069 9.548 39.814 7.208 8.737 17.902 14.274 31.883 16.562 22.288-8.863 47.454-23.764 62.25-48.355 7.839-13.027-5.195-28.539-19.391-23.098z"
         id="path32" />
      <path
         d="m131.02 319.901c2.091 2.212 5.228 3.11 9.324 2.663 1.528-.168 3.374.372 5.417 1.414l45.158-45.158c-3.961-3.025-7.24-6.67-9.781-10.713-6.001-9.548-19.856-9.671-25.809-.093-3.794 6.104-7.463 12.784-10.965 20.091-4.227 8.821-9.621 16.939-15.982 24.157.008 2.094.428 5.302 2.638 7.639z"
         id="path34" />
    </g>
    <path
       d="m168.589 371.564 10.436-16.564s-.373-.492-1.028-1.33l-2.943 2.943-30.964-30.964 2.759-2.759c-2.474-1.324-4.751-2.025-6.668-1.817-12.177 1.323-10.184-10.681-10.184-10.681-.011 0-.021-.001-.031-.002-11.005 13.094-25.106 23.411-41.278 29.774-.445.175-.884.348-1.317.518-18.495 7.277-23.455 31.128-9.401 45.182l31.451 31.451c12.509 12.509 16.961 30.927 11.665 47.806-1.098 3.501-2.217 7.282-3.316 11.291 11.687 7.116 24.018 13.277 36.883 18.384.657-2.542 1.232-5.155 1.702-7.851 4.605-26.432 22.896-48.357 48.049-57.697 2.259-.839 4.558-1.741 6.881-2.708-51.992-6.879-42.696-54.976-42.696-54.976z"
       fill="#d3dcfb"
       id="path38" />
    <path
       d="m155.316 390.614-45.227-45.227c-5.715-5.715-14.982-5.715-20.697 0s-5.715 14.982 0 20.697l45.227 45.227c5.715 5.715 14.982 5.715 20.697 0 5.716-5.715 5.716-14.981 0-20.697z"
       fill="#543e5b"
       id="path40" />
    <path
       d="m105.76 440.171-25.159-25.159-6.504 9.595s-9.126.062-10.321 7.22c10.936 12.017 23.038 22.952 36.15 32.603 2.132-.69 4.141-1.869 5.834-3.562 5.715-5.716 5.715-14.982 0-20.697z"
       fill="#6c5475"
       id="path42" />
    <path
       d="m81.601 416.012-21.068-21.068c-5.715-5.715-14.982-5.715-20.697 0-.831.831-1.526 1.743-2.116 2.703 7.944 12.578 17.01 24.373 27.042 35.265 1.138-7.241 10.334-7.304 10.334-7.304z"
       fill="#543e5b"
       id="path44" />
    <path
       d="m428.842 73.633c-7.458 5.907-16.757 13.319-27.64 22.033-4.577 3.665-7.369 8.901-7.86 14.744-.49 5.845 1.388 11.475 5.291 15.853l12.108 13.585c4.838-.183 10.148.203 15.756 1.552 5.424 1.304 11.028-1.316 13.656-6.236 5.857-10.964 14.875-30.842 17.372-53.103.28-2.499 1.358-4.998 3.022-7.127-7.687-5.53-19.812-10.721-31.705-1.301z"
       fill="#e9efff"
       id="path46" />
    <path
       d="m476.304 69.723c10.29 3 21.971-.063 29.417-9.188 8.571-10.505 8.338-25.368-.524-35.629-9.406-10.89-25.037-12.589-36.385-5.097l-100.874 63.275c-3.443 2.16-5.663 5.845-5.885 9.904-.356 6.52-1.951 16.65-8.058 22.756l30.964 30.964s11.119-6.652 27.084-6.901l-12.665-14.21c-7.687-8.624-6.571-21.931 2.448-29.151 8.422-6.742 18.73-14.975 27.636-22.03 11.46-9.077 23.103-4.076 30.517 1.288 3.274-4.76 9.388-8.003 16.325-5.981z"
       fill="#d3dcfb"
       id="path48" />
    <path
       d="m116.1 214.284h296.85v43.79h-296.85z"
       fill="#6c5475"
       transform="matrix(.707 -.707 .707 .707 -89.526 256.223)"
       id="path50" />
    <g
       id="g54">
      <path
         d="m384.96 152.708c-1.536 0-3.071-.586-4.243-1.758l-30.964-30.963c-2.343-2.344-2.343-6.143 0-8.485 2.343-2.344 6.142-2.343 8.485-.001l30.964 30.965c2.343 2.343 2.343 6.142 0 8.484-1.171 1.172-2.707 1.758-4.242 1.758z"
         fill="#977ca5"
         id="path52" />
    </g>
    <g
       id="g58">
      <path
         d="m358.86 178.808c-1.536 0-3.071-.586-4.243-1.758l-30.964-30.965c-2.343-2.343-2.343-6.142 0-8.485 2.343-2.342 6.142-2.343 8.485.001l30.964 30.965c2.343 2.343 2.343 6.142 0 8.485-1.17 1.171-2.706 1.757-4.242 1.757z"
         fill="#977ca5"
         id="path56" />
    </g>
    <g
       id="g62">
      <path
         d="m332.762 204.906c-1.536 0-3.071-.586-4.243-1.757l-30.964-30.965c-2.343-2.343-2.343-6.142 0-8.484 2.343-2.344 6.142-2.344 8.485 0l30.964 30.963c2.343 2.344 2.343 6.143 0 8.485-1.171 1.172-2.707 1.758-4.242 1.758z"
         fill="#977ca5"
         id="path60" />
    </g>
    <g
       id="g66">
      <path
         d="m306.663 231.005c-1.536 0-3.071-.586-4.243-1.758l-30.964-30.963c-2.343-2.344-2.343-6.143 0-8.485 2.343-2.344 6.142-2.343 8.485-.001l30.964 30.965c2.343 2.343 2.343 6.142 0 8.484-1.171 1.172-2.707 1.758-4.242 1.758z"
         fill="#977ca5"
         id="path64" />
    </g>
    <g
       id="g70">
      <path
         d="m280.564 257.104c-1.536 0-3.071-.586-4.243-1.758l-30.964-30.965c-2.343-2.343-2.343-6.142 0-8.485s6.142-2.342 8.485.001l30.964 30.965c2.343 2.343 2.343 6.142 0 8.485-1.171 1.172-2.707 1.757-4.242 1.757z"
         fill="#977ca5"
         id="path68" />
    </g>
    <g
       id="g74">
      <path
         d="m254.465 283.203c-1.536 0-3.071-.586-4.243-1.757l-30.964-30.965c-2.343-2.343-2.343-6.142 0-8.484 2.343-2.344 6.142-2.344 8.485 0l30.964 30.963c2.343 2.344 2.343 6.143 0 8.485-1.171 1.172-2.706 1.758-4.242 1.758z"
         fill="#977ca5"
         id="path72" />
    </g>
    <g
       id="g78">
      <path
         d="m228.366 309.302c-1.536 0-3.071-.586-4.243-1.758l-30.964-30.963c-2.343-2.344-2.343-6.143 0-8.485 2.343-2.344 6.142-2.343 8.485-.001l30.964 30.965c2.343 2.343 2.343 6.142 0 8.484-1.171 1.172-2.707 1.758-4.242 1.758z"
         fill="#977ca5"
         id="path76" />
    </g>
    <g
       id="g82">
      <path
         d="m202.267 335.4c-1.536 0-3.071-.586-4.243-1.758l-30.964-30.964c-2.343-2.343-2.343-6.142 0-8.484 2.343-2.344 6.143-2.344 8.485 0l30.964 30.964c2.343 2.343 2.343 6.142 0 8.484-1.171 1.172-2.707 1.758-4.242 1.758z"
         fill="#977ca5"
         id="path80" />
    </g>
    <g
       id="g86">
      <path
         d="m94.822 442.846c-1.536 0-3.071-.586-4.243-1.758-2.343-2.343-2.343-6.142 0-8.484l290.138-290.138c2.343-2.344 6.143-2.344 8.485 0 2.343 2.343 2.343 6.142 0 8.484l-290.137 290.138c-1.172 1.172-2.707 1.758-4.243 1.758z"
         fill="#ab91bc"
         id="path84" />
    </g>
    <g
       id="g90">
      <path
         d="m63.858 411.882c-1.536 0-3.071-.586-4.243-1.758-2.343-2.343-2.343-6.142 0-8.484l290.138-290.138c2.343-2.344 6.143-2.344 8.485 0 2.343 2.343 2.343 6.142 0 8.484l-290.138 290.138c-1.171 1.172-2.707 1.758-4.242 1.758z"
         fill="#ab91bc"
         id="path88" />
    </g>
    <g
       id="g94">
      <path
         d="m79.339 427.364c-1.536 0-3.071-.586-4.243-1.758-2.343-2.343-2.343-6.142 0-8.484l290.138-290.138c2.343-2.344 6.143-2.344 8.485 0 2.343 2.343 2.343 6.142 0 8.484l-290.137 290.138c-1.171 1.172-2.707 1.758-4.243 1.758z"
         fill="#ab91bc"
         id="path92" />
    </g>
    <g
       fill="#ff4155"
       id="g100">
      <path
         d="m0 266.998c0 2.731.057 5.448.146 8.157 28.243-2.578 55.95-21.342 69.732-50.412 42.148-88.9 81.648-78.034 157.648-88.537 83.432-11.53 75.705-73.867 63.788-109.819-14.999-2.87-30.477-4.39-46.312-4.39-135.311-.001-245.002 109.69-245.002 245.001z"
         id="path96" />
      <path
         d="m208.718 509.319c11.84 1.759 23.954 2.681 36.284 2.681 135.311 0 245.002-109.691 245.002-245.002 0-26.989-4.376-52.952-12.437-77.236-42.794 6.755-118.297 24.928-151.042 71.353-47 66.635 7.631 105.898-12.685 148.767-16.09 33.952-101.941 34.667-105.122 99.437z"
         id="path98" />
    </g>
  </g>
  <g
     aria-label="STE"
     transform="matrix(2.3945618,-1.9757624,1.9757624,2.3945618,1193.2284,-1354.2339)"
     inkscape:transform-center-x="-2.1694915"
     inkscape:transform-center-y="106.30508"
     style="font-style:normal;font-weight:normal;font-size:40px;line-height:1.25;font-family:sans-serif;letter-spacing:0px;word-spacing:0px;fill:#000000;fill-opacity:1;stroke:none"
     id="flowRoot916">
    <path
       d="m -593.16094,273.81986 q 0.96489,0 1.90565,-0.36183 0.94076,-0.33771 1.66441,-1.15786 0.74778,-0.79602 1.20611,-2.09861 0.45831,-1.3026 0.45831,-3.18412 0,-2.02624 -1.01312,-3.93188 -0.989,-1.90564 -2.50869,-3.73891 -1.49557,-1.8574 -3.25647,-3.66655 -1.73679,-1.83328 -3.25648,-3.7148 -1.49557,-1.90563 -2.50869,-3.90776 -0.989,-2.02624 -0.989,-4.22136 0,-2.1951 0.79602,-3.956 0.82015,-1.78503 2.1951,-3.01526 1.39909,-1.25434 3.23236,-1.92976 1.8574,-0.67541 3.95602,-0.67541 2.24334,0 3.98012,0.48243 1.76091,0.45833 2.96702,1.27848 1.23022,0.79602 1.85738,1.90564 0.62719,1.08548 0.62719,2.31571 0,0.57893 -0.16886,1.2061 -0.16886,0.60305 -0.53069,1.10961 -0.36183,0.50656 -0.91664,0.84427 -0.5548,0.33771 -1.30259,0.33771 -0.89251,0 -1.3267,-0.53069 -0.41008,-0.5548 -0.62718,-1.35083 -0.19298,-0.79602 -0.3377,-1.73678 -0.14474,-0.96488 -0.45833,-1.76091 -0.31357,-0.79602 -0.94076,-1.32671 -0.62717,-0.55481 -1.83326,-0.55481 -0.65131,0 -1.3026,0.28947 -0.62717,0.28946 -1.15785,0.89251 -0.50657,0.57893 -0.82015,1.49557 -0.31359,0.91664 -0.31359,2.17097 0,1.44733 0.60305,2.82228 0.60305,1.37496 1.59206,2.72579 0.989,1.32671 2.24334,2.67755 1.27847,1.32671 2.58107,2.70166 1.3267,1.35084 2.58105,2.79815 1.27847,1.42321 2.26747,2.96702 0.989,1.54381 1.59205,3.23235 0.60305,1.68853 0.60305,3.54593 0,2.72579 -1.06136,4.87265 -1.03726,2.12274 -2.8464,3.57006 -1.78503,1.47144 -4.19724,2.24334 -2.41219,0.77191 -5.13799,0.77191 -2.46044,0 -4.36608,-0.62717 -1.88152,-0.60305 -3.18411,-1.61617 -1.30258,-1.01314 -1.97801,-2.31572 -0.65129,-1.27847 -0.65129,-2.65342 0,-0.57893 0.16886,-1.23022 0.19298,-0.67542 0.53067,-1.23023 0.36184,-0.55481 0.89252,-0.91664 0.53069,-0.38595 1.23022,-0.38595 0.72367,0 1.15786,0.36183 0.45833,0.36183 0.72366,0.96488 0.26534,0.60305 0.4342,1.37495 0.16885,0.77191 0.36183,1.56795 0.19297,0.79602 0.48244,1.56793 0.28946,0.7719 0.79603,1.37495 0.50655,0.60305 1.30259,0.96488 0.79603,0.36183 2.00212,0.36183 z"
       style="font-style:normal;font-variant:normal;font-weight:normal;font-stretch:normal;font-family:'Berkshire Swash';-inkscape-font-specification:'Berkshire Swash';stroke-width:1.23504734;opacity:0.8"
       id="path924"
       inkscape:connector-curvature="0" />
    <path
       d="m -558.25557,279.5616 q -2.02625,0 -2.99114,-0.84428 -0.96488,-0.84427 -0.96488,-2.70167 v -30.63497 q -0.7719,0.0724 -1.92976,0.28948 -1.13373,0.19297 -2.38807,0.57892 -1.25435,0.38596 -2.50869,0.94076 -1.25435,0.53069 -2.24336,1.25434 -0.989,0.69955 -1.61617,1.59207 -0.62718,0.8925 -0.62718,1.978 0,0.7719 0.19298,1.23022 0.21711,0.45832 0.48244,0.69954 0.26534,0.2171 0.53069,0.28946 0.28946,0.0483 0.41007,0.0483 0.60305,0 0.98901,-0.19298 0.38595,-0.21711 0.69954,-0.4342 0.31358,-0.24122 0.57893,-0.4342 0.28946,-0.21709 0.65129,-0.21709 0.28946,0 0.60305,0.14473 0.33771,0.12054 0.60305,0.41007 0.28947,0.28946 0.48244,0.77191 0.19298,0.45831 0.19298,1.13374 0,0.96488 -0.38595,1.66441 -0.36184,0.69954 -0.96488,1.18197 -0.57893,0.45833 -1.35084,0.69955 -0.74778,0.21709 -1.49557,0.21709 -1.15785,0 -2.09861,-0.38595 -0.91664,-0.41007 -1.56793,-1.10961 -0.65129,-0.69953 -0.989,-1.6403 -0.33772,-0.94076 -0.33772,-2.00212 0,-2.82228 1.54381,-4.87266 1.56793,-2.07448 4.2696,-3.42531 2.70167,-1.37497 6.29585,-2.02626 3.59417,-0.65129 7.69493,-0.65129 1.95388,0 3.81127,0.0483 1.8574,0.0241 3.37709,0.0965 1.5438,0.0724 2.65342,0.16885 1.1096,0.0965 1.61617,0.2171 0.48245,0.12067 0.77191,0.36183 0.28947,0.2171 0.43419,0.50657 0.14473,0.28946 0.19298,0.62717 0.0483,0.31359 0.0483,0.6513 0,0.26534 -0.0724,0.62717 -0.0724,0.33771 -0.21709,0.65129 -0.14474,0.31359 -0.36184,0.53069 -0.21709,0.2171 -0.53068,0.2171 -0.19298,0 -0.41008,-0.16886 -0.19297,-0.16886 -0.5548,-0.41007 -0.36182,-0.24122 -0.98901,-0.55481 -0.60304,-0.31358 -1.61617,-0.57893 -0.989,-0.26534 -2.46045,-0.48243 -1.44731,-0.2171 -3.52181,-0.28947 v 30.6832 q 0,1.8574 -0.96488,2.70167 -0.96488,0.84428 -2.967,0.84428 z"
       style="font-style:normal;font-variant:normal;font-weight:normal;font-stretch:normal;font-family:'Berkshire Swash';-inkscape-font-specification:'Berkshire Swash';stroke-width:1.23504734;opacity:0.8"
       id="path926"
       inkscape:connector-curvature="0" />
    <path
       d="m -543.04858,235.63025 q 0,-2.82229 1.54381,-4.80029 1.56793,-1.978 4.2696,-3.23235 2.70166,-1.27846 6.29585,-1.85739 3.59417,-0.57893 7.69492,-0.57893 1.95389,0 3.81127,0.0483 1.8574,0.0241 3.37709,0.0965 1.54381,0.0724 2.65343,0.16886 1.1096,0.0964 1.61617,0.21709 0.48244,0.12067 0.7719,0.26535 0.28947,0.14474 0.4342,0.33771 0.14473,0.19298 0.19297,0.45832 0.0483,0.24121 0.0483,0.57893 0,0.28945 -0.0724,0.65129 -0.0724,0.33771 -0.2171,0.6513 -0.14473,0.28946 -0.36183,0.50655 -0.2171,0.2171 -0.53069,0.2171 -0.19297,0 -0.43419,-0.16884 -0.2171,-0.16886 -0.65129,-0.43421 -0.41007,-0.26534 -1.13374,-0.55481 -0.69954,-0.28946 -1.90564,-0.55479 -1.18198,-0.26535 -2.967,-0.43421 -1.76091,-0.16886 -4.2696,-0.16886 v 15.46223 h 10.01063 v 2.12274 h -10.01063 v 9.4317 q 0,1.13373 0.3377,1.95389 0.33771,0.79603 0.96488,1.3267 0.62718,0.53069 1.49557,0.77191 0.89252,0.24123 1.978,0.24123 1.23023,0 2.46045,-0.24123 1.23022,-0.26534 2.31572,-0.65129 1.10961,-0.38596 2.00212,-0.86839 0.91664,-0.48245 1.47145,-0.94076 l 0.94076,1.03724 q -0.60305,0.48245 -1.61617,1.32671 -1.01314,0.82015 -2.48457,1.61617 -1.44733,0.79603 -3.40121,1.39909 -1.92976,0.57893 -4.39021,0.57893 -0.82015,0 -1.88151,-0.0965 -1.03726,-0.0724 -2.14687,-0.31359 -1.10961,-0.26534 -2.1951,-0.74777 -1.06136,-0.50657 -1.90564,-1.32671 -0.82015,-0.82016 -1.35083,-2.00214 -0.50656,-1.2061 -0.50656,-2.87052 v -9.62468 h -3.76304 v -2.12273 h 3.76304 v -15.17276 q -0.7719,0.0724 -1.78504,0.28946 -0.989,0.19298 -2.05036,0.57893 -1.03726,0.36183 -2.05038,0.8684 -1.01312,0.50656 -1.80915,1.18197 -0.79602,0.67543 -1.30259,1.51969 -0.48244,0.82015 -0.48244,1.78503 0,0.7719 0.19297,1.23023 0.21711,0.45831 0.48245,0.69953 0.26534,0.2171 0.53069,0.28947 0.28945,0.0483 0.41007,0.0483 0.60305,0 0.989,-0.19297 0.38595,-0.2171 0.69954,-0.4342 0.31358,-0.24123 0.57893,-0.4342 0.28946,-0.2171 0.65129,-0.2171 0.28946,0 0.60305,0.14474 0.33771,0.12066 0.60305,0.41007 0.28947,0.28947 0.48245,0.7719 0.19297,0.45833 0.19297,1.13374 0,0.96488 -0.38595,1.68854 -0.36183,0.69954 -0.96488,1.15786 -0.57893,0.45831 -1.35083,0.69953 -0.74779,0.21711 -1.49557,0.21711 -1.15786,0 -2.09862,-0.38595 -0.91664,-0.41009 -1.56793,-1.10962 -0.65129,-0.69954 -0.989,-1.61618 -0.33771,-0.94075 -0.33771,-2.02624 z"
       style="font-style:normal;font-variant:normal;font-weight:normal;font-stretch:normal;font-family:'Berkshire Swash';-inkscape-font-specification:'Berkshire Swash';stroke-width:1.23504734;opacity:0.8"
       id="path928"
       inkscape:connector-curvature="0" />
  </g>
</svg>
